# Blender 3.4.1
# www.blender.org
mtllib Sniper.mtl
o Cylinder
v 0.000000 -1.250000 -1.000000
v 0.000000 1.250000 -1.000000
v 0.866025 -1.250000 -0.500000
v 0.866025 1.250000 -0.500000
v 0.866025 -1.250000 0.500000
v 0.866025 1.250000 0.500000
v 0.000000 -1.250000 1.000000
v 0.000000 1.250000 1.000000
v -0.866025 -1.250000 0.500000
v -0.866025 1.250000 0.500000
v -0.866025 -1.250000 -0.500000
v -0.866025 1.250000 -0.500000
v 0.000000 2.750000 0.000000
v 0.000000 -2.750000 0.000000
vn 0.5000 -0.0000 -0.8660
vn 1.0000 -0.0000 -0.0000
vn 0.5000 -0.0000 0.8660
vn -0.5000 -0.0000 0.8660
vn 0.4330 0.5000 -0.7500
vn -1.0000 -0.0000 -0.0000
vn -0.5000 -0.0000 -0.8660
vn -0.4330 -0.5000 0.7500
vn 0.4330 -0.5000 -0.7500
vn 0.4330 0.5000 0.7500
vn -0.4330 0.5000 -0.7500
vn -0.4330 0.5000 0.7500
vn 0.8660 0.5000 -0.0000
vn -0.8660 0.5000 -0.0000
vn -0.8660 -0.5000 -0.0000
vn 0.8660 -0.5000 -0.0000
vn 0.4330 -0.5000 0.7500
vn -0.4330 -0.5000 -0.7500
vt 1.000000 0.500000
vt -0.000000 0.500000
vt 1.000000 1.000000
vt -0.000000 1.000000
vt 0.833333 0.500000
vt 0.833333 1.000000
vt 0.666667 0.500000
vt 0.666667 1.000000
vt 0.500000 0.500000
vt 0.500000 1.000000
vt 0.333333 0.500000
vt 0.333333 1.000000
vt 0.166667 0.500000
vt 0.166667 1.000000
vt 0.833333 1.000000
vt 0.500000 1.000000
vt -0.000000 1.000000
vt 0.333333 1.000000
vt 0.666667 1.000000
vt 0.166667 1.000000
vt 0.500000 0.500000
vt 1.000000 0.500000
vt 0.333333 0.500000
vt 0.833333 0.500000
vt 0.666667 0.500000
vt 0.166667 0.500000
s 0
f 1/1/1 2/3/1 4/6/1 3/5/1
f 3/5/2 4/6/2 6/8/2 5/7/2
f 5/7/3 6/8/3 8/10/3 7/9/3
f 7/9/4 8/10/4 10/12/4 9/11/4
f 4/6/5 2/3/5 13/15/5
f 9/11/6 10/12/6 12/14/6 11/13/6
f 11/13/7 12/14/7 2/4/7 1/2/7
f 7/9/8 9/11/8 14/21/8
f 1/1/9 3/5/9 14/22/9
f 8/10/10 6/8/10 13/16/10
f 2/4/11 12/14/11 13/17/11
f 10/12/12 8/10/12 13/18/12
f 6/8/13 4/6/13 13/19/13
f 12/14/14 10/12/14 13/20/14
f 9/11/15 11/13/15 14/23/15
f 3/5/16 5/7/16 14/24/16
f 5/7/17 7/9/17 14/25/17
f 11/13/18 1/2/18 14/26/18
