# Blender 3.4.1
# www.blender.org
mtllib Level4.mtl
o Plane
v -2.100000 0.000000 2.100000
v 2.100000 0.000000 2.100000
v -2.100000 0.000000 -2.100000
v 2.100000 0.000000 -2.100000
v -2.100000 0.000000 0.000000
v 0.000000 0.000000 2.100000
v 2.100000 0.000000 0.000000
v 0.000000 0.000000 -2.100000
v 0.000000 0.000000 0.000000
v -1.260000 0.000000 -3.100000
v 1.260000 0.000000 -3.100000
v 0.000000 0.000000 -3.100000
v -1.260000 0.000000 -8.985851
v 1.260000 0.000000 -8.985851
v 0.000000 0.000000 -8.985851
v -2.016000 0.000000 -9.985851
v 2.016000 0.000000 -9.985851
v 0.000000 0.000000 -9.985851
v -2.016000 0.000000 -13.985851
v 2.016000 0.000000 -13.985851
v 0.000000 0.000000 -13.985851
v -3.039304 0.000000 -10.815853
v 3.039304 0.000000 -10.815853
v -3.039304 0.000000 -13.155849
v 3.039304 0.000000 -13.155849
v -13.023121 0.000000 -10.815853
v 13.023121 0.000000 -10.815853
v -13.023121 0.000000 -13.155849
v 13.023121 0.000000 -13.155849
v -13.674276 0.000000 -11.383152
v 13.674276 0.000000 -11.383152
v -13.674276 0.000000 -12.588551
v 13.674276 0.000000 -12.588551
v -1.411200 0.000000 -14.985851
v 1.411200 0.000000 -14.985851
v 0.000000 0.000000 -14.985851
v -1.411200 0.000000 -21.996073
v 1.411200 0.000000 -21.996073
v 0.000000 0.000000 -21.996073
v -1.411200 0.000000 -24.059196
v 1.411200 0.000000 -24.059196
v 0.000000 0.000000 -24.059196
vn -0.0000 1.0000 -0.0000
vt 0.000000 0.000000
vt 1.000000 0.000000
vt 0.000000 1.000000
vt 1.000000 1.000000
vt 0.000000 0.500000
vt 0.500000 0.000000
vt 1.000000 0.500000
vt 0.500000 1.000000
vt 0.500000 0.500000
vt 0.000000 1.000000
vt 1.000000 1.000000
vt 0.500000 1.000000
vt 0.000000 1.000000
vt 1.000000 1.000000
vt 0.500000 1.000000
vt 0.000000 1.000000
vt 1.000000 1.000000
vt 0.500000 1.000000
vt 0.000000 1.000000
vt 1.000000 1.000000
vt 0.500000 1.000000
vt 0.000000 1.000000
vt 1.000000 1.000000
vt 0.000000 1.000000
vt 1.000000 1.000000
vt 0.000000 1.000000
vt 1.000000 1.000000
vt 0.000000 1.000000
vt 1.000000 1.000000
vt 0.000000 1.000000
vt 1.000000 1.000000
vt 0.000000 1.000000
vt 1.000000 1.000000
vt 0.000000 1.000000
vt 1.000000 1.000000
vt 0.500000 1.000000
vt 0.000000 1.000000
vt 1.000000 1.000000
vt 0.500000 1.000000
vt 0.000000 1.000000
vt 1.000000 1.000000
vt 0.500000 1.000000
s 0
f 9/9/1 7/7/1 4/4/1 8/8/1
f 5/5/1 9/9/1 8/8/1 3/3/1
f 1/1/1 6/6/1 9/9/1 5/5/1
f 6/6/1 2/2/1 7/7/1 9/9/1
f 8/8/1 4/4/1 11/11/1 12/12/1
f 3/3/1 8/8/1 12/12/1 10/10/1
f 12/12/1 11/11/1 14/14/1 15/15/1
f 10/10/1 12/12/1 15/15/1 13/13/1
f 15/15/1 14/14/1 17/17/1 18/18/1
f 13/13/1 15/15/1 18/18/1 16/16/1
f 18/18/1 17/17/1 20/20/1 21/21/1
f 16/16/1 18/18/1 21/21/1 19/19/1
f 16/16/1 19/19/1 24/24/1 22/22/1
f 20/20/1 17/17/1 23/23/1 25/25/1
f 22/22/1 24/24/1 28/28/1 26/26/1
f 25/25/1 23/23/1 27/27/1 29/29/1
f 26/26/1 28/28/1 32/32/1 30/30/1
f 29/29/1 27/27/1 31/31/1 33/33/1
f 21/21/1 20/20/1 35/35/1 36/36/1
f 19/19/1 21/21/1 36/36/1 34/34/1
f 36/36/1 35/35/1 38/38/1 39/39/1
f 34/34/1 36/36/1 39/39/1 37/37/1
f 39/39/1 38/38/1 41/41/1 42/42/1
f 37/37/1 39/39/1 42/42/1 40/40/1
