# Blender 3.4.1
# www.blender.org
mtllib Level1.mtl
o Plane
v -8.634693 -0.981831 9.179825
v 8.865307 -0.981831 9.179825
v -8.634693 -0.981831 -8.320173
v 8.865307 -0.981831 -8.320173
v -8.634693 -0.981831 0.429827
v 0.115307 -0.981831 16.679825
v 8.865307 -0.981831 0.429827
v 0.115307 -0.981831 -8.320173
v 0.115307 -0.981831 0.429827
v -4.967442 -0.981831 -14.570173
v 5.198057 -0.981831 -14.570173
v 0.115307 -0.981831 -14.570173
v -4.967442 -0.981831 -29.772318
v 5.198057 -0.981831 -29.772318
v 0.115307 -0.981831 -29.772318
v -4.967442 -0.981831 -67.272316
v 5.198057 -0.981831 -67.272316
v 0.115307 -0.981831 -67.272316
v -15.132940 -0.981831 -29.772318
v 15.363554 -0.981831 -29.772318
v -15.132940 -0.981831 -67.272316
v 15.363554 -0.981831 -67.272316
v -17.518681 -0.981831 -33.870773
v 17.749292 -0.981831 -33.870773
v -17.518681 -0.981831 -63.173866
v 17.749292 -0.981831 -63.173866
v 5.198057 -0.981831 -48.522316
v 0.115307 -0.981831 -48.522316
v -4.967442 -0.981831 -48.522316
v 15.363554 -0.981831 -48.522316
v -15.132940 -0.981831 -48.522316
v 17.749292 -0.981831 -48.522316
v -17.518681 -0.981831 -48.522316
v 5.198057 -0.981831 -57.897316
v 15.363554 -0.981831 -57.897316
v 17.749292 -0.981831 -55.848091
v 0.115307 -0.981831 -57.897316
v -4.967442 -0.981831 -57.897316
v -15.132940 -0.981831 -57.897316
v -17.518681 -0.981831 -55.848091
v 0.115307 -0.981831 -39.147316
v -4.967442 -0.981831 -39.147316
v -15.132940 -0.981831 -39.147316
v -17.518681 -0.981831 -41.196545
v 5.198057 -0.981831 -39.147316
v 15.363554 -0.981831 -39.147316
v 17.749292 -0.981831 -41.196545
v 5.198057 -0.981831 -44.075092
v 15.363554 -0.981831 -44.075092
v 17.749292 -0.981831 -45.047188
v 0.115307 -0.981831 -44.075092
v -4.967442 -0.981831 -44.075092
v -15.132940 -0.981831 -44.075092
v -17.518681 -0.981831 -45.047188
v 0.115307 -0.981831 -53.209816
v -4.967442 -0.981831 -53.209816
v -15.132940 -0.981831 -53.209816
v -17.518681 -0.981831 -52.185204
v 5.198057 -0.981831 -53.209816
v 15.363554 -0.981831 -53.209816
v 17.749292 -0.981831 -52.185204
v 5.198057 -0.981831 -62.584816
v 15.363554 -0.981831 -62.584816
v 17.749292 -0.981831 -59.510979
v 0.115307 -0.981831 -62.584816
v -4.967442 -0.981831 -62.584816
v -15.132940 -0.981831 -62.584816
v -17.518681 -0.981831 -59.510979
v 0.115307 -0.981831 -34.459816
v -4.967442 -0.981831 -34.459816
v -15.132940 -0.981831 -34.459816
v -17.518681 -0.981831 -37.533657
v 5.198057 -0.981831 -34.459816
v 15.363554 -0.981831 -34.459816
v 17.749292 -0.981831 -37.533657
v -9.738750 -0.981831 -67.272316
v -9.738750 -0.981831 -29.772318
v -9.738750 -0.981831 -48.522316
v -9.738750 -0.981831 -57.897316
v -9.738750 -0.981831 -39.147316
v -9.738750 -0.981831 -44.075092
v -9.738750 -0.981831 -53.209816
v -9.738750 -0.981831 -62.584816
v -9.738750 -0.981831 -34.459816
v 10.280805 -0.981831 -29.772318
v 10.280805 -0.981831 -67.272316
v 10.280805 -0.981831 -48.522316
v 10.280805 -0.981831 -57.897316
v 10.280805 -0.981831 -39.147316
v 10.280805 -0.981831 -44.075092
v 10.280805 -0.981831 -53.209816
v 10.280805 -0.981831 -62.584816
v 10.280805 -0.981831 -34.459816
v 5.198057 4.018169 -44.075092
v 5.198057 4.018169 -48.522316
v -4.967442 4.018169 -53.209816
v -4.967442 4.018169 -48.522316
v -4.967442 4.018169 -44.075092
v 5.198057 4.018169 -53.209816
v -9.738750 4.018169 -48.522316
v -9.738750 4.018169 -44.075092
v -9.738750 4.018169 -53.209816
v 10.280805 4.018169 -48.522316
v 10.280805 4.018169 -44.075092
v 10.280805 4.018169 -53.209816
v -4.967442 9.018169 -53.209816
v -4.967442 9.018169 -48.522316
v -9.738750 9.018169 -48.522316
v -9.738750 9.018169 -53.209816
v -15.132940 4.124352 -53.209816
v -15.132940 4.124352 -48.522316
v -17.518681 4.124352 -52.185204
v -17.518681 4.124352 -48.522316
v 15.363554 4.124352 -48.522316
v 17.749292 4.124352 -48.522316
v -15.132940 4.124352 -62.584816
v -15.132940 4.124352 -57.897316
v -17.518681 4.124352 -59.510979
v -17.518681 4.124352 -55.848091
v 15.363554 4.124352 -57.897316
v 17.749292 4.124352 -55.848091
v -15.132940 4.124352 -44.075092
v -15.132940 4.124352 -39.147316
v -17.518681 4.124352 -45.047188
v -17.518681 4.124352 -41.196545
v 15.363554 4.124352 -39.147316
v 17.749292 4.124352 -41.196545
v 15.363554 4.124352 -44.075092
v 17.749292 4.124352 -45.047188
v 15.363554 4.124352 -53.209816
v 17.749292 4.124352 -52.185204
v 15.363554 4.124352 -62.584816
v 17.749292 4.124352 -59.510979
v -4.967442 -0.981831 -74.772316
v 5.198057 -0.981831 -74.772316
v 0.115307 -0.981831 -74.772316
vn -0.0000 1.0000 -0.0000
vn -0.6516 -0.0000 0.7586
vn 1.0000 -0.0000 -0.0000
vn -1.0000 -0.0000 -0.0000
vn 0.7900 -0.0000 -0.6131
vn -0.0000 -0.0000 1.0000
vn -0.0000 -0.0000 -1.0000
vn 0.3773 -0.0000 -0.9261
vn 0.6516 -0.0000 0.7586
vn -0.7900 -0.0000 -0.6131
vn -0.3773 -0.0000 -0.9261
vn -0.3946 -0.0000 -0.9188
vn 0.3946 -0.0000 -0.9188
vt 0.000000 0.000000
vt 1.000000 0.000000
vt 0.000000 1.000000
vt 1.000000 1.000000
vt 0.000000 0.500000
vt 0.500000 0.000000
vt 1.000000 0.500000
vt 0.500000 1.000000
vt 0.500000 0.500000
vt 0.000000 1.000000
vt 1.000000 1.000000
vt 0.500000 1.000000
vt 0.000000 1.000000
vt 1.000000 1.000000
vt 0.500000 1.000000
vt 0.000000 1.000000
vt 1.000000 1.000000
vt 0.500000 1.000000
vt 0.000000 1.000000
vt 1.000000 1.000000
vt 0.000000 1.000000
vt 1.000000 1.000000
vt 0.000000 1.000000
vt 1.000000 1.000000
vt 0.000000 1.000000
vt 1.000000 1.000000
vt 1.000000 1.000000
vt 0.500000 1.000000
vt 0.000000 1.000000
vt 1.000000 1.000000
vt 0.000000 1.000000
vt 0.000000 0.000000
vt 1.000000 1.000000
vt 0.000000 0.000000
vt 0.000000 1.000000
vt 1.000000 1.000000
vt 1.000000 1.000000
vt 1.000000 1.000000
vt 0.000000 0.000000
vt 0.500000 1.000000
vt 0.000000 1.000000
vt 0.000000 1.000000
vt 0.000000 1.000000
vt 0.000000 0.000000
vt 0.500000 1.000000
vt 0.000000 1.000000
vt 0.000000 1.000000
vt 0.000000 1.000000
vt 0.000000 0.000000
vt 1.000000 1.000000
vt 1.000000 1.000000
vt 1.000000 1.000000
vt 0.000000 0.000000
vt 1.000000 1.000000
vt 1.000000 1.000000
vt 1.000000 1.000000
vt 0.000000 0.000000
vt 0.500000 1.000000
vt 0.000000 1.000000
vt 0.000000 1.000000
vt 0.000000 1.000000
vt 0.000000 0.000000
vt 0.500000 1.000000
vt 0.000000 1.000000
vt 0.000000 1.000000
vt 0.000000 0.000000
vt 0.000000 1.000000
vt 1.000000 1.000000
vt 1.000000 1.000000
vt 0.000000 0.000000
vt 1.000000 1.000000
vt 1.000000 1.000000
vt 1.000000 1.000000
vt 1.000000 1.000000
vt 0.000000 0.000000
vt 0.500000 1.000000
vt 0.000000 1.000000
vt 0.000000 1.000000
vt 0.000000 1.000000
vt 0.000000 0.000000
vt 0.500000 1.000000
vt 0.000000 1.000000
vt 0.000000 1.000000
vt 0.000000 1.000000
vt 1.000000 1.000000
vt 1.000000 1.000000
vt 1.000000 1.000000
vt 0.000000 1.000000
vt 0.000000 1.000000
vt 0.000000 1.000000
vt 0.000000 1.000000
vt 0.000000 1.000000
vt 0.000000 1.000000
vt 0.000000 1.000000
vt 0.000000 1.000000
vt 0.000000 1.000000
vt 1.000000 1.000000
vt 1.000000 1.000000
vt 1.000000 1.000000
vt 1.000000 1.000000
vt 1.000000 1.000000
vt 1.000000 1.000000
vt 1.000000 1.000000
vt 1.000000 1.000000
vt 1.000000 1.000000
vt 1.000000 1.000000
vt 1.000000 1.000000
vt 0.000000 1.000000
vt 0.000000 1.000000
vt 0.000000 1.000000
vt 1.000000 1.000000
vt 0.000000 1.000000
vt 0.000000 1.000000
vt 0.000000 1.000000
vt 1.000000 1.000000
vt 1.000000 1.000000
vt 1.000000 1.000000
vt 0.000000 1.000000
vt 0.000000 1.000000
vt 0.000000 1.000000
vt 0.000000 1.000000
vt 0.000000 1.000000
vt 0.000000 1.000000
vt 0.000000 0.000000
vt 0.000000 1.000000
vt 0.000000 0.000000
vt 0.000000 1.000000
vt 1.000000 1.000000
vt 0.000000 0.000000
vt 1.000000 1.000000
vt 0.000000 1.000000
vt 0.000000 1.000000
vt 0.000000 1.000000
vt 0.000000 0.000000
vt 0.000000 1.000000
vt 0.000000 0.000000
vt 1.000000 1.000000
vt 1.000000 1.000000
vt 0.000000 0.000000
vt 0.000000 1.000000
vt 0.000000 1.000000
vt 0.000000 1.000000
vt 0.000000 0.000000
vt 0.000000 1.000000
vt 0.000000 0.000000
vt 1.000000 1.000000
vt 1.000000 1.000000
vt 0.000000 0.000000
vt 1.000000 1.000000
vt 1.000000 1.000000
vt 0.000000 0.000000
vt 1.000000 1.000000
vt 0.000000 0.000000
vt 1.000000 1.000000
vt 1.000000 1.000000
vt 1.000000 1.000000
vt 0.000000 0.000000
vt 0.000000 1.000000
vt 1.000000 1.000000
vt 0.500000 1.000000
s 0
f 9/9/1 7/7/1 4/4/1 8/8/1
f 5/5/1 9/9/1 8/8/1 3/3/1
f 1/1/1 6/6/1 9/9/1 5/5/1
f 6/6/1 2/2/1 7/7/1 9/9/1
f 8/8/1 4/4/1 11/11/1 12/12/1
f 3/3/1 8/8/1 12/12/1 10/10/1
f 12/12/1 11/11/1 14/14/1 15/15/1
f 10/10/1 12/12/1 15/15/1 13/13/1
f 65/76/1 62/72/1 17/17/1 18/18/1
f 66/77/1 65/76/1 18/18/1 16/16/1
f 83/95/1 76/88/1 21/21/1 67/78/1
f 93/105/1 85/97/1 20/20/1 74/86/1
f 67/78/1 21/21/1 25/25/1 68/79/1
f 74/86/1 20/20/1 24/24/1 75/87/1
f 44/48/2 43/47/2 123/141/2 125/144/2
f 53/60/1 31/31/1 33/35/1 54/61/1
f 91/103/1 87/99/1 30/30/1 60/69/1
f 81/93/1 78/90/1 31/31/1 53/60/1
f 52/59/1 51/58/1 28/28/1 29/29/1
f 51/58/1 48/54/1 27/27/1 28/28/1
f 92/104/1 88/100/1 35/37/1 63/73/1
f 35/37/2 36/38/2 121/138/2 120/137/2
f 57/65/1 39/42/1 40/43/1 58/67/1
f 82/94/1 79/91/1 39/42/1 57/65/1
f 56/64/1 55/63/1 37/40/1 38/41/1
f 55/63/1 59/68/1 34/36/1 37/40/1
f 69/81/1 73/85/1 45/50/1 41/45/1
f 70/82/1 69/81/1 41/45/1 42/46/1
f 84/96/1 80/92/1 43/47/1 71/83/1
f 71/83/1 43/47/1 44/48/1 72/84/1
f 32/32/3 61/70/3 131/153/3 115/129/3
f 90/102/1 89/101/1 46/51/1 49/55/1
f 87/99/1 90/102/1 49/55/1 30/30/1
f 30/30/1 49/55/1 50/56/1 32/33/1
f 41/45/1 45/50/1 48/54/1 51/58/1
f 42/46/1 41/45/1 51/58/1 52/59/1
f 80/92/1 81/93/1 53/60/1 43/47/1
f 58/66/4 33/34/4 113/126/4 112/124/4
f 28/28/1 27/27/1 59/68/1 55/63/1
f 29/29/1 28/28/1 55/63/1 56/64/1
f 78/90/1 82/94/1 57/65/1 31/31/1
f 43/47/3 53/60/3 122/140/3 123/141/3
f 88/100/1 91/103/1 60/69/1 35/37/1
f 35/37/1 60/69/1 61/71/1 36/38/1
f 22/22/1 63/73/1 64/74/1 26/26/1
f 86/98/1 92/104/1 63/73/1 22/22/1
f 64/74/5 63/73/5 132/155/5 133/156/5
f 79/91/1 83/95/1 67/78/1 39/42/1
f 38/41/1 37/40/1 65/76/1 66/77/1
f 37/40/1 34/36/1 62/72/1 65/76/1
f 19/19/1 71/83/1 72/84/1 23/23/1
f 77/89/1 84/96/1 71/83/1 19/19/1
f 13/13/1 15/15/1 69/81/1 70/82/1
f 15/15/1 14/14/1 73/85/1 69/81/1
f 46/51/1 74/86/1 75/87/1 47/52/1
f 89/101/1 93/105/1 74/86/1 46/51/1
f 13/13/1 70/82/1 84/96/1 77/89/1
f 38/41/1 66/77/1 83/95/1 79/91/1
f 78/90/4 81/93/4 101/113/4 100/112/4
f 42/46/1 52/59/1 81/93/1 80/92/1
f 70/82/1 42/46/1 80/92/1 84/96/1
f 56/64/1 38/41/1 79/91/1 82/94/1
f 87/99/3 91/103/3 105/117/3 103/115/3
f 66/77/1 16/16/1 76/88/1 83/95/1
f 45/50/1 73/85/1 93/105/1 89/101/1
f 17/17/1 62/72/1 92/104/1 86/98/1
f 34/36/1 59/68/1 91/103/1 88/100/1
f 27/27/4 48/54/4 94/106/4 95/107/4
f 48/54/1 45/50/1 89/101/1 90/102/1
f 62/72/1 34/36/1 88/100/1 92/104/1
f 82/94/4 78/90/4 100/112/4 102/114/4
f 73/85/1 14/14/1 85/97/1 93/105/1
f 102/114/4 100/112/4 108/120/4 109/121/4
f 98/110/1 97/109/1 100/112/1 101/113/1
f 95/107/1 94/106/1 104/116/1 103/115/1
f 99/111/1 95/107/1 103/115/1 105/117/1
f 81/93/6 52/59/6 98/110/6 101/113/6
f 48/54/6 90/102/6 104/116/6 94/106/6
f 90/102/3 87/99/3 103/115/3 104/116/3
f 59/68/4 27/27/4 95/107/4 99/111/4
f 91/103/7 59/68/7 99/111/7 105/117/7
f 56/64/7 82/94/7 102/114/7 96/108/7
f 29/29/3 56/64/3 96/108/3 97/109/3
f 52/59/3 29/29/3 97/109/3 98/110/3
f 107/119/1 106/118/1 109/121/1 108/120/1
f 97/109/3 96/108/3 106/118/3 107/119/3
f 96/108/7 102/114/7 109/121/7 106/118/7
f 100/112/6 97/109/6 107/119/6 108/120/6
f 130/152/1 114/128/1 115/130/1 131/154/1
f 132/155/1 120/137/1 121/138/1 133/156/1
f 128/149/1 126/146/1 127/147/1 129/150/1
f 123/141/1 122/140/1 124/142/1 125/144/1
f 111/123/1 110/122/1 112/125/1 113/127/1
f 117/132/1 116/131/1 118/133/1 119/135/1
f 53/60/8 54/61/8 124/142/8 122/140/8
f 63/73/4 35/37/4 120/137/4 132/155/4
f 54/62/4 44/49/4 125/145/4 124/143/4
f 30/30/6 32/33/6 115/130/6 114/128/6
f 40/43/9 39/42/9 117/132/9 119/135/9
f 67/78/10 68/79/10 118/133/10 116/131/10
f 46/51/9 47/52/9 127/147/9 126/146/9
f 36/39/3 64/75/3 133/157/3 121/139/3
f 33/35/6 31/31/6 111/123/6 113/127/6
f 50/56/11 49/55/11 128/149/11 129/150/11
f 57/65/12 58/67/12 112/125/12 110/122/12
f 49/55/4 46/51/4 126/146/4 128/149/4
f 39/42/3 67/78/3 116/131/3 117/132/3
f 47/53/3 50/57/3 129/151/3 127/148/3
f 31/31/3 57/65/3 110/122/3 111/123/3
f 68/80/4 40/44/4 119/136/4 118/134/4
f 61/71/13 60/69/13 130/152/13 131/154/13
f 60/69/4 30/30/4 114/128/4 130/152/4
f 18/18/1 17/17/1 135/159/1 136/160/1
f 16/16/1 18/18/1 136/160/1 134/158/1
