# Blender 3.4.1
# www.blender.org
mtllib Crystal.mtl
o Crystal
v 0.114708 -0.975617 -0.198680
v 0.229416 -0.975617 0.000000
v 0.114708 -0.975617 0.198680
v -0.114708 -0.975617 0.198680
v -0.229416 -0.975617 0.000000
v -0.114708 -0.975617 -0.198680
v 0.162750 -0.986729 -0.142322
v 0.041879 -0.986729 -0.212106
v 0.057816 -1.058012 -0.100141
v 0.204629 -0.986729 0.069785
v 0.204629 -0.986729 -0.069785
v 0.115633 -1.058012 0.000000
v 0.041879 -0.986729 0.212106
v 0.162750 -0.986729 0.142322
v 0.057816 -1.058012 0.100141
v -0.162750 -0.986729 0.142322
v -0.041879 -0.986729 0.212106
v -0.057816 -1.058012 0.100141
v -0.204629 -0.986729 -0.069785
v -0.204629 -0.986729 0.069785
v -0.115633 -1.058012 -0.000000
v -0.041879 -0.986729 -0.212106
v -0.162750 -0.986729 -0.142322
v -0.057816 -1.058012 -0.100141
v 0.116953 1.091278 -1.732950
v 0.114708 0.897961 -1.749322
v -0.114708 0.897961 -1.749322
v -0.116953 1.091278 -1.732950
v 0.129864 1.031508 -1.761769
v 0.042725 1.102766 -1.743486
v 0.043545 1.032526 -1.786466
v 0.041879 0.886849 -1.762748
v 0.129050 0.961412 -1.767705
v 0.043265 0.960650 -1.792865
v -0.129050 0.961412 -1.767705
v -0.041879 0.886849 -1.762748
v -0.043265 0.960650 -1.792865
v -0.042725 1.102766 -1.743486
v -0.129864 1.031508 -1.761769
v -0.043545 1.032525 -1.786466
v -1.259497 1.408722 -0.592125
v -1.047761 1.500000 -0.604925
v -1.142544 1.408722 -0.794694
v -1.199008 1.453285 -0.596188
v -1.231507 1.420210 -0.661677
v -1.184789 1.456138 -0.653342
v -1.081208 1.486616 -0.670982
v -1.121692 1.486616 -0.600862
v -1.136773 1.477312 -0.656316
v -1.188783 1.420210 -0.735678
v -1.115818 1.453285 -0.740277
v -1.158206 1.456138 -0.699386
v 1.457603 0.897961 -0.974001
v 1.442302 1.091278 -0.967759
v 1.559255 1.091278 -0.765191
v 1.572311 0.897961 -0.775321
v 1.466353 0.961412 -0.995613
v 1.505645 0.886849 -0.917642
v 1.531034 0.960650 -0.933901
v 1.488541 1.102766 -0.908744
v 1.460805 1.031508 -0.993350
v 1.525352 1.032526 -0.930945
v 1.590669 1.031508 -0.768419
v 1.531265 1.102766 -0.834742
v 1.568898 1.032526 -0.855522
v 1.547524 0.886849 -0.845106
v 1.595403 0.961412 -0.772092
v 1.574299 0.960650 -0.858963
v -1.142544 1.408722 0.794694
v -1.047761 1.500000 0.604925
v -1.259497 1.408722 0.592125
v -1.115818 1.453285 0.740277
v -1.188783 1.420210 0.735678
v -1.158206 1.456138 0.699386
v -1.121691 1.486616 0.600862
v -1.081208 1.486616 0.670982
v -1.136773 1.477312 0.656316
v -1.231507 1.420210 0.661677
v -1.199008 1.453285 0.596188
v -1.184789 1.456138 0.653342
v 1.572311 0.897961 0.775321
v 1.559255 1.091278 0.765191
v 1.442302 1.091278 0.967759
v 1.457603 0.897961 0.974001
v 1.595403 0.961412 0.772092
v 1.547524 0.886849 0.845106
v 1.574299 0.960650 0.858963
v 1.531265 1.102766 0.834742
v 1.590669 1.031508 0.768419
v 1.568898 1.032526 0.855522
v 1.460805 1.031508 0.993350
v 1.488541 1.102767 0.908743
v 1.525352 1.032526 0.930944
v 1.505645 0.886849 0.917642
v 1.466353 0.961412 0.995613
v 1.531034 0.960650 0.933901
v 0.116953 1.408722 1.386819
v 0.000000 1.500000 1.209851
v -0.116953 1.408722 1.386819
v 0.083190 1.453285 1.336465
v 0.042725 1.420210 1.397355
v 0.026583 1.456138 1.352729
v -0.040484 1.486616 1.271845
v 0.040484 1.486616 1.271845
v 0.000000 1.477312 1.312633
v -0.042725 1.420210 1.397355
v -0.083190 1.453285 1.336465
v -0.026583 1.456138 1.352729
v 0.114708 0.897961 1.749322
v 0.116953 1.091278 1.732950
v -0.116953 1.091278 1.732950
v -0.114708 0.897961 1.749322
v 0.129050 0.961412 1.767705
v 0.041879 0.886849 1.762748
v 0.043265 0.960650 1.792865
v 0.042725 1.102766 1.743486
v 0.129864 1.031508 1.761769
v 0.043545 1.032526 1.786466
v -0.129864 1.031508 1.761769
v -0.042725 1.102766 1.743486
v -0.043545 1.032526 1.786466
v -0.041879 0.886849 1.762748
v -0.129050 0.961412 1.767705
v -0.043265 0.960650 1.792865
v 1.259497 1.408722 0.592125
v 1.047761 1.500000 0.604925
v 1.142544 1.408722 0.794694
v 1.199008 1.453285 0.596188
v 1.231507 1.420210 0.661677
v 1.184789 1.456138 0.653342
v 1.081208 1.486616 0.670982
v 1.121692 1.486616 0.600862
v 1.136773 1.477312 0.656316
v 1.188783 1.420210 0.735678
v 1.115818 1.453285 0.740277
v 1.158206 1.456138 0.699386
v -1.457603 0.897961 0.974001
v -1.442302 1.091278 0.967759
v -1.559255 1.091278 0.765191
v -1.572311 0.897961 0.775321
v -1.466353 0.961412 0.995613
v -1.505645 0.886849 0.917642
v -1.531034 0.960650 0.933901
v -1.488541 1.102766 0.908744
v -1.460805 1.031508 0.993350
v -1.525352 1.032526 0.930945
v -1.590669 1.031508 0.768419
v -1.531265 1.102766 0.834742
v -1.568898 1.032526 0.855522
v -1.547524 0.886849 0.845106
v -1.595403 0.961412 0.772092
v -1.574299 0.960650 0.858963
v 1.142544 1.408722 -0.794694
v 1.047761 1.500000 -0.604925
v 1.259497 1.408722 -0.592125
v 1.115818 1.453285 -0.740277
v 1.188783 1.420210 -0.735678
v 1.158206 1.456138 -0.699386
v 1.121691 1.486616 -0.600862
v 1.081208 1.486616 -0.670982
v 1.136773 1.477312 -0.656316
v 1.231507 1.420210 -0.661677
v 1.199008 1.453285 -0.596188
v 1.184789 1.456138 -0.653342
v -1.572311 0.897961 -0.775321
v -1.559255 1.091278 -0.765191
v -1.442302 1.091278 -0.967759
v -1.457603 0.897961 -0.974001
v -1.595403 0.961412 -0.772092
v -1.547524 0.886849 -0.845106
v -1.574299 0.960650 -0.858963
v -1.531265 1.102766 -0.834742
v -1.590669 1.031508 -0.768419
v -1.568898 1.032526 -0.855522
v -1.460805 1.031508 -0.993350
v -1.488541 1.102767 -0.908743
v -1.525352 1.032526 -0.930944
v -1.505645 0.886849 -0.917642
v -1.466353 0.961412 -0.995613
v -1.531034 0.960650 -0.933901
v 0.116953 1.408722 -1.386819
v -0.116953 1.408722 -1.386819
v 0.000000 1.500000 -1.209851
v 0.042725 1.420210 -1.397355
v 0.083190 1.453285 -1.336465
v 0.026583 1.456138 -1.352728
v -0.083190 1.453285 -1.336465
v -0.042725 1.420210 -1.397355
v -0.026583 1.456138 -1.352729
v 0.040484 1.486616 -1.271844
v -0.040484 1.486616 -1.271845
v -0.000000 1.477312 -1.312633
vn 0.3635 0.6866 -0.6297
vn 0.4064 -0.5826 -0.7039
vn 0.8128 -0.5826 -0.0000
vn 0.4064 -0.5826 0.7039
vn -0.0000 1.0000 -0.0000
vn -0.4064 -0.5826 0.7039
vn -0.8128 -0.5826 -0.0000
vn -0.3635 0.6866 0.6297
vn 0.3635 0.6866 0.6297
vn -0.7271 0.6866 -0.0000
vn -0.3635 0.6866 -0.6297
vn 0.7271 0.6866 -0.0000
vn 0.2933 -0.8099 -0.5079
vn 0.4651 -0.8435 -0.2685
vn 0.5865 -0.8099 -0.0000
vn 0.4651 -0.8435 0.2685
vn 0.2933 -0.8099 0.5079
vn -0.0000 -0.8435 0.5371
vn -0.2933 -0.8099 0.5079
vn -0.4651 -0.8435 0.2685
vn -0.5865 -0.8099 -0.0000
vn -0.4651 -0.8435 -0.2685
vn -0.2933 -0.8099 -0.5079
vn -0.0000 -0.8435 -0.5371
vn -0.0000 -1.0000 -0.0000
vn 0.2231 0.4892 -0.8431
vn 0.2774 0.0810 -0.9573
vn 0.2461 -0.3479 -0.9047
vn -0.0000 -0.3778 -0.9259
vn -0.2461 -0.3479 -0.9047
vn -0.2774 0.0810 -0.9573
vn -0.2231 0.4892 -0.8431
vn -0.0000 0.5219 -0.8530
vn -0.0000 0.0887 -0.9961
vn -0.5942 0.7971 -0.1077
vn -0.4008 0.9148 -0.0493
vn -0.1867 0.9765 -0.1078
vn -0.2431 0.9148 -0.3225
vn -0.3904 0.7971 -0.4607
vn -0.5431 0.7789 -0.3136
vn -0.4044 0.8843 -0.2335
vn 0.6604 -0.3479 -0.6655
vn 0.6903 0.0810 -0.7189
vn 0.6186 0.4892 -0.6148
vn 0.7387 0.5219 -0.4265
vn 0.8418 0.4892 -0.2283
vn 0.9678 0.0810 -0.2384
vn 0.9065 -0.3479 -0.2392
vn 0.8018 -0.3778 -0.4629
vn 0.8626 0.0887 -0.4980
vn -0.3904 0.7971 0.4607
vn -0.2431 0.9148 0.3225
vn -0.1867 0.9765 0.1078
vn -0.4008 0.9148 0.0493
vn -0.5942 0.7971 0.1077
vn -0.5431 0.7789 0.3136
vn -0.4044 0.8843 0.2335
vn 0.9065 -0.3479 0.2392
vn 0.9678 0.0810 0.2384
vn 0.8418 0.4892 0.2283
vn 0.7387 0.5219 0.4265
vn 0.6186 0.4892 0.6148
vn 0.6903 0.0810 0.7189
vn 0.6604 -0.3479 0.6655
vn 0.8018 -0.3778 0.4629
vn 0.8626 0.0887 0.4980
vn 0.2038 0.7971 0.5684
vn 0.1577 0.9148 0.3718
vn -0.0000 0.9765 0.2156
vn -0.1577 0.9148 0.3718
vn -0.2038 0.7971 0.5684
vn -0.0000 0.7789 0.6271
vn -0.0000 0.8843 0.4670
vn 0.2461 -0.3479 0.9047
vn 0.2774 0.0810 0.9573
vn 0.2231 0.4892 0.8431
vn -0.0000 0.5219 0.8530
vn -0.2231 0.4892 0.8431
vn -0.2774 0.0810 0.9573
vn -0.2461 -0.3479 0.9047
vn -0.0000 -0.3778 0.9259
vn -0.0000 0.0887 0.9961
vn 0.5942 0.7971 0.1077
vn 0.4008 0.9148 0.0493
vn 0.1867 0.9765 0.1078
vn 0.2431 0.9148 0.3225
vn 0.3904 0.7971 0.4607
vn 0.5431 0.7789 0.3136
vn 0.4044 0.8843 0.2335
vn -0.6604 -0.3479 0.6655
vn -0.6903 0.0810 0.7189
vn -0.6186 0.4892 0.6148
vn -0.7387 0.5219 0.4265
vn -0.8418 0.4892 0.2283
vn -0.9678 0.0810 0.2384
vn -0.9065 -0.3479 0.2392
vn -0.8018 -0.3778 0.4629
vn -0.8626 0.0887 0.4980
vn 0.3904 0.7971 -0.4607
vn 0.2431 0.9148 -0.3225
vn 0.1867 0.9765 -0.1078
vn 0.4008 0.9148 -0.0493
vn 0.5942 0.7971 -0.1077
vn 0.5431 0.7789 -0.3136
vn 0.4044 0.8843 -0.2335
vn -0.9065 -0.3479 -0.2392
vn -0.9678 0.0810 -0.2384
vn -0.8418 0.4892 -0.2283
vn -0.7387 0.5219 -0.4265
vn -0.6186 0.4892 -0.6148
vn -0.6903 0.0810 -0.7189
vn -0.6604 -0.3479 -0.6655
vn -0.8018 -0.3778 -0.4629
vn -0.8626 0.0887 -0.4980
vn 0.2038 0.7971 -0.5684
vn -0.0000 0.7789 -0.6271
vn -0.2038 0.7971 -0.5684
vn -0.1577 0.9148 -0.3718
vn -0.0000 0.9765 -0.2156
vn 0.1577 0.9148 -0.3718
vn -0.0000 0.8843 -0.4670
vn 0.4699 -0.3420 -0.8138
vn 0.4989 0.0674 -0.8641
vn 0.4426 0.4652 -0.7666
vn -0.2327 -0.6201 -0.7492
vn -0.0000 -0.6376 -0.7704
vn 0.2327 -0.6201 -0.7492
vn 0.9397 -0.3420 -0.0000
vn 0.9977 0.0674 -0.0000
vn 0.8852 0.4652 -0.0000
vn 0.4699 -0.3420 0.8138
vn 0.4989 0.0674 0.8641
vn 0.4426 0.4652 0.7666
vn -0.2055 0.7213 0.6615
vn -0.0000 0.7370 0.6759
vn 0.2055 0.7213 0.6615
vn 0.6756 0.7213 0.1528
vn 0.5854 0.7370 0.3380
vn 0.4701 0.7213 0.5087
vn -0.4699 -0.3420 0.8138
vn -0.4989 0.0674 0.8641
vn -0.4426 0.4652 0.7666
vn 0.6756 0.7213 -0.1528
vn 0.5854 0.7370 -0.3380
vn 0.4701 0.7213 -0.5087
vn -0.2055 0.7213 -0.6615
vn -0.0000 0.7370 -0.6759
vn 0.2055 0.7213 -0.6615
vn -0.9397 -0.3420 -0.0000
vn -0.9977 0.0674 -0.0000
vn -0.8852 0.4652 -0.0000
vn -0.4701 0.7213 -0.5087
vn -0.5854 0.7370 -0.3380
vn -0.6756 0.7213 -0.1528
vn -0.4701 0.7213 0.5087
vn -0.5854 0.7370 0.3380
vn -0.6756 0.7213 0.1528
vn -0.4699 -0.3420 -0.8138
vn -0.4989 0.0674 -0.8641
vn -0.4426 0.4652 -0.7666
vn -0.5325 -0.6201 -0.5762
vn -0.6672 -0.6376 -0.3852
vn -0.7652 -0.6201 -0.1731
vn -0.2966 0.8051 -0.5137
vn -0.1979 0.9183 -0.3428
vn -0.0891 0.9840 -0.1543
vn -0.7652 -0.6201 0.1731
vn -0.6672 -0.6376 0.3852
vn -0.5325 -0.6201 0.5762
vn -0.2327 -0.6201 0.7492
vn -0.0000 -0.6376 0.7704
vn 0.2327 -0.6201 0.7492
vn 0.5325 -0.6201 0.5762
vn 0.6672 -0.6376 0.3852
vn 0.7652 -0.6201 0.1731
vn 0.7652 -0.6201 -0.1731
vn 0.6672 -0.6376 -0.3852
vn 0.5325 -0.6201 -0.5762
vn -0.5931 0.8051 -0.0000
vn -0.3959 0.9183 -0.0000
vn -0.1781 0.9840 -0.0000
vn -0.2966 0.8051 0.5137
vn -0.1979 0.9183 0.3428
vn -0.0891 0.9840 0.1543
vn 0.2966 0.8051 0.5137
vn 0.1979 0.9183 0.3428
vn 0.0891 0.9840 0.1543
vn 0.5931 0.8051 -0.0000
vn 0.3959 0.9183 -0.0000
vn 0.1781 0.9840 -0.0000
vn 0.2966 0.8051 -0.5137
vn 0.1979 0.9183 -0.3428
vn 0.0891 0.9840 -0.1543
vn -0.4064 -0.5826 -0.7039
vt 0.988381 0.569712
vt 0.821715 0.569712
vt 0.655048 0.569712
vt 0.488381 0.569712
vt 0.321715 0.569712
vt 0.155048 0.569712
vt 0.833333 0.562628
vt 0.979124 0.562628
vt 0.145791 0.562627
vt 1.000000 0.562627
vt 0.992313 0.546123
vt 0.835424 0.540160
vt 0.151189 0.540161
vt 0.496288 0.522273
vt 0.666667 0.562628
vt 0.812458 0.562628
vt 0.828529 0.565557
vt 0.825646 0.546123
vt 0.668757 0.540161
vt 0.504078 0.528236
vt 0.500000 0.562627
vt 0.645791 0.562627
vt 0.661862 0.565557
vt 0.652855 0.541435
vt 0.500000 0.541435
vt 0.482952 0.565557
vt 0.495195 0.565557
vt 0.492313 0.546123
vt 0.316286 0.565557
vt 0.333333 0.562628
vt 0.479124 0.562628
vt 0.333333 0.541435
vt 0.486188 0.541435
vt 0.149619 0.565557
vt 0.166667 0.562628
vt 0.312457 0.562628
vt 0.317856 0.540161
vt 0.158979 0.546123
vt 0.486510 0.528236
vt 0.987344 1.000000
vt 0.988381 0.977776
vt 0.019027 0.977776
vt 0.012656 1.000000
vt 0.985645 1.000000
vt -0.000000 1.000000
vt 1.000000 1.000000
vt 0.993998 1.000000
vt -0.002239 1.000000
vt 0.002956 0.992295
vt 0.009770 0.970691
vt 1.000000 0.970691
vt 0.986180 0.989287
vt 1.000000 0.983452
vt 0.005516 0.983452
vt 0.017391 0.989287
vt 0.013598 0.973621
vt 0.010152 0.987001
vt 0.005215 1.000000
vt 0.014355 1.000000
vt 0.006002 1.000000
vt 0.008823 0.996785
vt 0.181103 1.000000
vt 0.064393 0.357160
vt 0.152230 1.000000
vt 0.176658 1.000000
vt 0.042154 0.355612
vt 0.172364 1.000000
vt 0.169627 1.000000
vt 0.042154 0.365737
vt 0.058468 0.368862
vt 0.051297 0.356440
vt 0.048625 0.366264
vt 0.160969 1.000000
vt 0.156675 1.000000
vt 0.054614 0.377194
vt 0.163706 1.000000
vt 0.045846 0.372131
vt 0.852360 0.977776
vt 0.845990 1.000000
vt 0.820677 1.000000
vt 0.821715 0.977776
vt 0.850725 0.989287
vt 0.833333 0.970691
vt 0.843103 0.970691
vt 0.838849 0.983452
vt 0.833333 0.983452
vt 0.838548 1.000000
vt 0.847689 1.000000
vt 0.839335 1.000000
vt 0.832946 0.992295
vt 0.818978 1.000000
vt 0.828118 1.000000
vt 0.827331 1.000000
vt 0.825581 0.996785
vt 0.828529 0.973621
vt 0.819513 0.989287
vt 0.827514 0.987001
vt 0.347769 1.000000
vt 0.064393 0.142840
vt 0.318897 1.000000
vt 0.343325 1.000000
vt 0.054614 0.122806
vt 0.339031 1.000000
vt 0.336294 1.000000
vt 0.045846 0.127869
vt 0.051297 0.143560
vt 0.058468 0.131138
vt 0.048625 0.133736
vt 0.327636 1.000000
vt 0.323342 1.000000
vt 0.042154 0.144388
vt 0.330373 1.000000
vt 0.042154 0.134263
vt 0.685693 0.977776
vt 0.679323 1.000000
vt 0.654010 1.000000
vt 0.655048 0.977776
vt 0.684058 0.989287
vt 0.666667 0.970691
vt 0.676436 0.970691
vt 0.672183 0.983452
vt 0.666667 0.983452
vt 0.671882 1.000000
vt 0.681022 1.000000
vt 0.672669 1.000000
vt 0.666279 0.992295
vt 0.652311 1.000000
vt 0.661452 1.000000
vt 0.660665 1.000000
vt 0.658915 0.996785
vt 0.661862 0.973621
vt 0.652846 0.989287
vt 0.660847 0.987001
vt 0.514436 1.000000
vt 0.250000 0.035680
vt 0.485564 1.000000
vt 0.509991 1.000000
vt 0.262460 0.017194
vt 0.505698 1.000000
vt 0.502960 1.000000
vt 0.253692 0.012132
vt 0.242828 0.024698
vt 0.257172 0.024698
vt 0.250000 0.017472
vt 0.494302 1.000000
vt 0.490009 1.000000
vt 0.237540 0.017194
vt 0.497040 1.000000
vt 0.246308 0.012132
vt 0.519027 0.977776
vt 0.512656 1.000000
vt 0.487343 1.000000
vt 0.488381 0.977776
vt 0.517391 0.989287
vt 0.500000 0.970691
vt 0.509770 0.970691
vt 0.505516 0.983452
vt 0.500000 0.983452
vt 0.505215 1.000000
vt 0.514355 1.000000
vt 0.506002 1.000000
vt 0.499613 0.992295
vt 0.485644 1.000000
vt 0.494785 1.000000
vt 0.493998 1.000000
vt 0.492248 0.996785
vt 0.495195 0.973621
vt 0.486180 0.989287
vt 0.494181 0.987001
vt 0.681103 1.000000
vt 0.435607 0.142840
vt 0.652230 1.000000
vt 0.676658 1.000000
vt 0.457846 0.144388
vt 0.672364 1.000000
vt 0.669627 1.000000
vt 0.457846 0.134263
vt 0.441532 0.131138
vt 0.448703 0.143560
vt 0.451375 0.133736
vt 0.660969 1.000000
vt 0.656675 1.000000
vt 0.445386 0.122806
vt 0.663706 1.000000
vt 0.454154 0.127869
vt 0.352360 0.977776
vt 0.345990 1.000000
vt 0.320677 1.000000
vt 0.321715 0.977776
vt 0.350725 0.989287
vt 0.346931 0.973621
vt 0.343485 0.987001
vt 0.338548 1.000000
vt 0.347689 1.000000
vt 0.339335 1.000000
vt 0.342157 0.996785
vt 0.318978 1.000000
vt 0.328118 1.000000
vt 0.327331 1.000000
vt 0.336289 0.992295
vt 0.333333 0.970691
vt 0.343103 0.970691
vt 0.319513 0.989287
vt 0.333333 0.983452
vt 0.338849 0.983452
vt 0.847769 1.000000
vt 0.435607 0.357160
vt 0.818897 1.000000
vt 0.843325 1.000000
vt 0.445386 0.377194
vt 0.839031 1.000000
vt 0.836294 1.000000
vt 0.454154 0.372131
vt 0.448703 0.356440
vt 0.441532 0.368862
vt 0.451375 0.366264
vt 0.827636 1.000000
vt 0.823342 1.000000
vt 0.457846 0.355612
vt 0.830373 1.000000
vt 0.457846 0.365737
vt 0.185693 0.977776
vt 0.179323 1.000000
vt 0.154010 1.000000
vt 0.155048 0.977776
vt 0.184058 0.989287
vt 0.180264 0.973621
vt 0.176819 0.987001
vt 0.171882 1.000000
vt 0.181022 1.000000
vt 0.172669 1.000000
vt 0.175490 0.996785
vt 0.152311 1.000000
vt 0.161451 1.000000
vt 0.160665 1.000000
vt 0.169622 0.992295
vt 0.166667 0.970691
vt 0.176436 0.970691
vt 0.152846 0.989287
vt 0.166667 0.983452
vt 0.172182 0.983452
vt 0.985564 1.000000
vt 0.014436 1.000000
vt 0.250000 0.464320
vt -0.000000 1.000000
vt 1.000000 1.000000
vt 0.990009 1.000000
vt 0.262460 0.482806
vt 0.997040 1.000000
vt -0.001387 1.000000
vt 0.253692 0.487868
vt 0.009991 1.000000
vt 0.237540 0.482806
vt 0.005698 1.000000
vt 0.002960 1.000000
vt 0.246308 0.487868
vt 0.257172 0.475302
vt 0.242828 0.475302
vt 0.250000 0.482528
s 0
f 54/79/1 25/40/1 181/242/1 153/206/1
f 1/1/2 26/41/2 53/78/2
f 2/2/3 56/81/3 81/114/3
f 3/3/4 84/117/4 109/150/4
f 154/207/5 183/244/5 42/63/5 70/99/5 98/135/5 126/171/5
f 4/4/6 112/153/6 137/186/6
f 5/5/7 140/189/7 165/222/7
f 138/187/8 111/152/8 99/136/8 69/98/8
f 110/151/9 83/116/9 127/172/9 97/134/9
f 166/223/10 139/188/10 71/100/10 41/62/10
f 28/43/11 167/224/11 43/64/11 182/243/11
f 82/115/12 55/80/12 155/208/12 125/170/12
f 1/1/13 7/8/13 9/11/13 8/10/13
f 7/7/14 11/17/14 12/18/14 9/12/14
f 2/2/15 10/16/15 12/18/15 11/17/15
f 10/15/16 14/23/16 15/24/16 12/19/16
f 3/3/17 13/22/17 15/24/17 14/23/17
f 13/21/18 17/27/18 18/28/18 15/25/18
f 4/4/19 16/26/19 18/28/19 17/27/19
f 16/26/20 20/31/20 21/33/20 18/28/20
f 5/5/21 19/29/21 21/32/21 20/30/21
f 19/29/22 23/36/22 24/37/22 21/32/22
f 6/6/23 22/34/23 24/38/23 23/35/23
f 22/34/24 8/9/24 9/13/24 24/38/24
f 9/14/25 12/20/25 15/25/25 18/28/25 21/33/25 24/39/25
f 25/40/26 29/44/26 31/47/26 30/46/26
f 29/44/27 33/52/27 34/53/27 31/47/27
f 26/41/28 32/51/28 34/53/28 33/52/28
f 32/50/29 36/56/29 37/57/29 34/54/29
f 27/42/30 35/55/30 37/57/30 36/56/30
f 35/55/31 39/59/31 40/60/31 37/57/31
f 28/43/32 38/58/32 40/60/32 39/59/32
f 38/58/33 30/45/33 31/48/33 40/60/33
f 31/49/34 34/54/34 37/57/34 40/61/34
f 41/62/35 44/65/35 46/68/35 45/67/35
f 44/66/36 48/71/36 49/72/36 46/69/36
f 42/63/37 47/70/37 49/72/37 48/71/37
f 47/70/38 51/75/38 52/77/38 49/72/38
f 43/64/39 50/73/39 52/76/39 51/74/39
f 50/73/40 45/67/40 46/68/40 52/76/40
f 46/69/41 49/72/41 52/77/41
f 53/78/42 57/82/42 59/85/42 58/84/42
f 57/82/43 61/88/43 62/89/43 59/85/43
f 54/79/44 60/87/44 62/89/44 61/88/44
f 60/87/45 64/92/45 65/93/45 62/89/45
f 55/80/46 63/91/46 65/93/46 64/92/46
f 63/91/47 67/96/47 68/97/47 65/93/47
f 56/81/48 66/95/48 68/97/48 67/96/48
f 66/95/49 58/83/49 59/86/49 68/97/49
f 59/86/50 62/90/50 65/94/50 68/97/50
f 69/98/51 72/101/51 74/104/51 73/103/51
f 72/102/52 76/107/52 77/108/52 74/105/52
f 70/99/53 75/106/53 77/108/53 76/107/53
f 75/106/54 79/111/54 80/113/54 77/108/54
f 71/100/55 78/109/55 80/112/55 79/110/55
f 78/109/56 73/103/56 74/104/56 80/112/56
f 74/105/57 77/108/57 80/113/57
f 81/114/58 85/118/58 87/121/58 86/120/58
f 85/118/59 89/124/59 90/125/59 87/121/59
f 82/115/60 88/123/60 90/125/60 89/124/60
f 88/123/61 92/128/61 93/129/61 90/125/61
f 83/116/62 91/127/62 93/129/62 92/128/62
f 91/127/63 95/132/63 96/133/63 93/129/63
f 84/117/64 94/131/64 96/133/64 95/132/64
f 94/131/65 86/119/65 87/122/65 96/133/65
f 87/122/66 90/126/66 93/130/66 96/133/66
f 97/134/67 100/137/67 102/140/67 101/139/67
f 100/138/68 104/143/68 105/144/68 102/141/68
f 98/135/69 103/142/69 105/144/69 104/143/69
f 103/142/70 107/147/70 108/149/70 105/144/70
f 99/136/71 106/145/71 108/148/71 107/146/71
f 106/145/72 101/139/72 102/140/72 108/148/72
f 102/141/73 105/144/73 108/149/73
f 109/150/74 113/154/74 115/157/74 114/156/74
f 113/154/75 117/160/75 118/161/75 115/157/75
f 110/151/76 116/159/76 118/161/76 117/160/76
f 116/159/77 120/164/77 121/165/77 118/161/77
f 111/152/78 119/163/78 121/165/78 120/164/78
f 119/163/79 123/168/79 124/169/79 121/165/79
f 112/153/80 122/167/80 124/169/80 123/168/80
f 122/167/81 114/155/81 115/158/81 124/169/81
f 115/158/82 118/162/82 121/166/82 124/169/82
f 125/170/83 128/173/83 130/176/83 129/175/83
f 128/174/84 132/179/84 133/180/84 130/177/84
f 126/171/85 131/178/85 133/180/85 132/179/85
f 131/178/86 135/183/86 136/185/86 133/180/86
f 127/172/87 134/181/87 136/184/87 135/182/87
f 134/181/88 129/175/88 130/176/88 136/184/88
f 130/177/89 133/180/89 136/185/89
f 137/186/90 141/190/90 143/192/90 142/191/90
f 141/190/91 145/194/91 146/195/91 143/192/91
f 138/187/92 144/193/92 146/195/92 145/194/92
f 144/193/93 148/198/93 149/199/93 146/195/93
f 139/188/94 147/197/94 149/199/94 148/198/94
f 147/197/95 151/203/95 152/204/95 149/199/95
f 140/189/96 150/201/96 152/204/96 151/203/96
f 150/202/97 142/191/97 143/192/97 152/205/97
f 143/192/98 146/196/98 149/200/98 152/205/98
f 153/206/99 156/209/99 158/212/99 157/211/99
f 156/210/100 160/215/100 161/216/100 158/213/100
f 154/207/101 159/214/101 161/216/101 160/215/101
f 159/214/102 163/219/102 164/221/102 161/216/102
f 155/208/103 162/217/103 164/220/103 163/218/103
f 162/217/104 157/211/104 158/212/104 164/220/104
f 158/213/105 161/216/105 164/221/105
f 165/222/106 169/226/106 171/228/106 170/227/106
f 169/226/107 173/230/107 174/231/107 171/228/107
f 166/223/108 172/229/108 174/231/108 173/230/108
f 172/229/109 176/234/109 177/235/109 174/231/109
f 167/224/110 175/233/110 177/235/110 176/234/110
f 175/233/111 179/239/111 180/240/111 177/235/111
f 168/225/112 178/237/112 180/240/112 179/239/112
f 178/238/113 170/227/113 171/228/113 180/241/113
f 171/228/114 174/232/114 177/236/114 180/241/114
f 181/242/115 184/246/115 186/249/115 185/247/115
f 184/245/116 188/254/116 189/255/116 186/250/116
f 182/243/117 187/252/117 189/255/117 188/254/117
f 187/253/118 191/258/118 192/259/118 189/256/118
f 183/244/119 190/257/119 192/259/119 191/258/119
f 190/257/120 185/248/120 186/251/120 192/259/120
f 186/251/121 189/256/121 192/259/121
f 53/78/122 26/41/122 33/52/122 57/82/122
f 57/82/123 33/52/123 29/44/123 61/88/123
f 61/88/124 29/44/124 25/40/124 54/79/124
f 6/6/125 27/42/125 36/56/125 22/34/125
f 22/34/126 36/56/126 32/50/126 8/9/126
f 8/10/127 32/51/127 26/41/127 1/1/127
f 81/114/128 56/81/128 67/96/128 85/118/128
f 85/118/129 67/96/129 63/91/129 89/124/129
f 89/124/130 63/91/130 55/80/130 82/115/130
f 109/150/131 84/117/131 95/132/131 113/154/131
f 113/154/132 95/132/132 91/127/132 117/160/132
f 117/160/133 91/127/133 83/116/133 110/151/133
f 99/136/134 111/152/134 120/164/134 106/145/134
f 106/145/135 120/164/135 116/159/135 101/139/135
f 101/139/136 116/159/136 110/151/136 97/134/136
f 82/115/137 125/170/137 129/175/137 88/123/137
f 88/123/138 129/175/138 134/181/138 92/128/138
f 92/128/139 134/181/139 127/172/139 83/116/139
f 137/186/140 112/153/140 123/168/140 141/190/140
f 141/190/141 123/168/141 119/163/141 145/194/141
f 145/194/142 119/163/142 111/152/142 138/187/142
f 155/208/143 55/80/143 64/92/143 162/217/143
f 162/217/144 64/92/144 60/87/144 157/211/144
f 157/211/145 60/87/145 54/79/145 153/206/145
f 28/43/146 182/243/146 188/254/146 38/58/146
f 38/58/147 188/254/147 184/245/147 30/45/147
f 30/46/148 184/246/148 181/242/148 25/40/148
f 165/222/149 140/189/149 151/203/149 169/226/149
f 169/226/150 151/203/150 147/197/150 173/230/150
f 173/230/151 147/197/151 139/188/151 166/223/151
f 43/64/152 167/224/152 176/234/152 50/73/152
f 50/73/153 176/234/153 172/229/153 45/67/153
f 45/67/154 172/229/154 166/223/154 41/62/154
f 138/187/155 69/98/155 73/103/155 144/193/155
f 144/193/156 73/103/156 78/109/156 148/198/156
f 148/198/157 78/109/157 71/100/157 139/188/157
f 27/42/158 168/225/158 179/239/158 35/55/158
f 35/55/159 179/239/159 175/233/159 39/59/159
f 39/59/160 175/233/160 167/224/160 28/43/160
f 168/225/161 6/6/161 23/35/161 178/237/161
f 178/238/162 23/36/162 19/29/162 170/227/162
f 170/227/163 19/29/163 5/5/163 165/222/163
f 182/243/164 43/64/164 51/74/164 187/252/164
f 187/253/165 51/75/165 47/70/165 191/258/165
f 191/258/166 47/70/166 42/63/166 183/244/166
f 140/189/167 5/5/167 20/30/167 150/201/167
f 150/202/168 20/31/168 16/26/168 142/191/168
f 142/191/169 16/26/169 4/4/169 137/186/169
f 112/153/170 4/4/170 17/27/170 122/167/170
f 122/167/171 17/27/171 13/21/171 114/155/171
f 114/156/172 13/22/172 3/3/172 109/150/172
f 84/117/173 3/3/173 14/23/173 94/131/173
f 94/131/174 14/23/174 10/15/174 86/119/174
f 86/120/175 10/16/175 2/2/175 81/114/175
f 56/81/176 2/2/176 11/17/176 66/95/176
f 66/95/177 11/17/177 7/7/177 58/83/177
f 58/84/178 7/8/178 1/1/178 53/78/178
f 41/62/179 71/100/179 79/110/179 44/65/179
f 44/66/180 79/111/180 75/106/180 48/71/180
f 48/71/181 75/106/181 70/99/181 42/63/181
f 69/98/182 99/136/182 107/146/182 72/101/182
f 72/102/183 107/147/183 103/142/183 76/107/183
f 76/107/184 103/142/184 98/135/184 70/99/184
f 97/134/185 127/172/185 135/182/185 100/137/185
f 100/138/186 135/183/186 131/178/186 104/143/186
f 104/143/187 131/178/187 126/171/187 98/135/187
f 125/170/188 155/208/188 163/218/188 128/173/188
f 128/174/189 163/219/189 159/214/189 132/179/189
f 132/179/190 159/214/190 154/207/190 126/171/190
f 153/206/191 181/242/191 185/247/191 156/209/191
f 156/210/192 185/248/192 190/257/192 160/215/192
f 160/215/193 190/257/193 183/244/193 154/207/193
f 6/6/194 168/225/194 27/42/194
